<?xml version="1.0" standalone="no"?>
<!DOCTYPE svg PUBLIC "-//W3C//DTD SVG 20010904//EN"
 "http://www.w3.org/TR/2001/REC-SVG-20010904/DTD/svg10.dtd">
<svg version="1.0" xmlns="http://www.w3.org/2000/svg"
 width="200.000000pt" height="200.000000pt" viewBox="0 0 200.000000 200.000000"
 preserveAspectRatio="xMidYMid meet">
<metadata>
Created by potrace 1.11, written by Peter Selinger 2001-2013
</metadata>
<g transform="translate(0.000000,200.000000) scale(0.100000,-0.100000)"
fill="#000000" stroke="none">
<path d="M617 1315 c-19 -6 -48 -22 -63 -34 -36 -28 -91 -96 -100 -123 -3 -11
-8 -17 -11 -15 -2 3 1 15 7 27 26 48 -17 113 -75 113 -31 0 -65 -29 -65 -55 0
-26 -14 -22 -30 7 -19 35 -73 44 -108 18 -37 -27 -51 -83 -28 -117 20 -32 48
-33 77 -3 17 17 20 18 12 3 -6 -10 -9 -26 -8 -35 1 -9 0 -10 -2 -4 -3 9 -10
10 -23 3 -22 -12 -20 -17 31 -126 29 -61 98 -142 139 -164 21 -11 21 -11 5 14
-11 16 -13 26 -6 26 8 0 6 10 -4 31 -9 17 -14 33 -12 36 3 2 13 -12 23 -33 23
-49 79 -104 129 -129 43 -21 151 -26 235 -13 43 8 44 7 13 -5 -47 -18 -40 -32
15 -30 53 3 40 -10 -21 -21 -29 -5 -37 -11 -35 -24 5 -24 36 -22 85 5 23 12
55 23 71 23 49 0 92 53 83 103 -1 5 3 6 8 3 5 -4 8 -15 6 -26 -2 -11 0 -22 5
-25 5 -3 6 -15 1 -28 -17 -45 2 -77 45 -77 44 0 75 52 42 73 -21 14 -49 -7
-41 -31 5 -16 5 -16 -12 0 -16 15 -16 18 -1 39 9 13 16 18 16 12 0 -9 8 -9 28
-2 15 5 142 10 282 12 l255 3 6 36 c10 64 57 109 107 102 6 -1 19 -2 28 -3 20
-1 74 -55 74 -73 -1 -7 -7 -1 -16 14 -18 34 -43 48 -86 48 -52 -1 -88 -40 -88
-95 0 -39 50 -85 93 -85 42 0 87 38 87 75 0 14 4 25 10 25 5 0 7 -7 3 -16 -5
-13 0 -15 25 -11 39 6 52 14 52 33 0 8 4 14 9 14 11 0 7 98 -5 109 -15 15
-100 23 -267 26 l-159 4 -64 42 c-35 23 -64 45 -64 48 0 17 -80 30 -164 27
-118 -5 -132 -9 -298 -67 -146 -51 -194 -60 -185 -35 6 16 -29 53 -40 43 -3
-4 -6 -20 -6 -37 0 -16 -4 -27 -9 -24 -14 9 -9 34 18 80 16 28 33 44 45 44 10
0 19 -4 19 -9 0 -5 -8 -8 -17 -7 -24 2 -28 -31 -8 -54 19 -21 61 -18 84 5 18
17 17 74 -2 92 -26 26 -79 27 -117 1 -45 -31 -61 -63 -58 -115 2 -24 0 -43 -4
-43 -8 0 -12 28 -9 65 4 41 25 76 60 97 44 28 22 37 -33 14 -65 -27 -88 -114
-50 -189 16 -29 16 -31 1 -18 -19 15 -37 72 -32 98 2 10 4 26 4 36 1 9 16 34
35 54 29 32 40 37 78 38 l44 0 -15 27 c-13 22 -21 26 -50 23 -41 -4 -79 -31
-104 -73 -37 -63 -25 -165 24 -207 16 -13 25 -26 19 -30 -5 -3 -23 13 -39 35
-81 113 -18 290 105 290 24 0 53 23 54 43 0 4 -19 7 -42 7 -96 0 -181 -119
-171 -238 4 -56 23 -91 68 -131 20 -17 30 -31 23 -31 -21 1 -65 45 -87 88 -42
83 -18 196 58 272 27 27 59 50 72 52 34 5 101 -10 118 -27 12 -12 11 -13 -9
-8 -16 4 -27 0 -36 -11 -26 -36 21 -87 73 -78 28 4 73 57 73 86 0 72 -112 122
-203 91z m-367 -95 c30 -16 40 -42 46 -122 7 -88 29 -184 50 -216 9 -13 13
-26 10 -30 -7 -7 -4 -10 -53 63 -43 65 -73 125 -73 146 0 7 16 -20 35 -60 37
-77 51 -89 35 -30 -5 19 -11 67 -15 107 -7 91 -18 119 -50 134 -19 8 -28 8
-40 -2 -8 -7 -12 -16 -9 -21 3 -5 0 -9 -5 -9 -15 0 -14 23 1 38 15 15 43 15
68 2z m146 -59 c-12 -25 -17 -55 -15 -85 2 -25 0 -46 -4 -46 -5 0 -7 27 -5 60
4 69 -13 82 -32 24 -12 -35 -9 -125 5 -170 5 -15 4 -16 -3 -4 -5 8 -13 33 -17
55 -10 58 -15 153 -6 131 7 -18 8 -18 14 -2 8 21 0 39 -14 31 -5 -4 -9 -2 -9
4 0 6 12 8 30 5 36 -8 64 11 56 39 -4 15 -2 17 6 9 8 -8 7 -22 -6 -51z m-171
19 c3 -6 -1 -7 -9 -4 -18 7 -21 14 -7 14 6 0 13 -4 16 -10z m212 -72 c-3 -8
-6 -5 -6 6 -1 11 2 17 5 13 3 -3 4 -12 1 -19z m-10 -80 c-3 -8 -6 -5 -6 6 -1
11 2 17 5 13 3 -3 4 -12 1 -19z m916 -37 c31 -24 57 -45 57 -47 0 -2 -73 -4
-163 -4 l-164 0 -11 37 c-6 20 -9 39 -6 42 10 10 92 19 159 18 66 -2 73 -5
128 -46z m-920 -77 c24 -47 70 -91 123 -119 27 -14 38 -23 24 -19 -42 11 -88
44 -123 87 -35 44 -67 115 -66 145 0 9 6 -1 13 -23 7 -22 20 -54 29 -71z m577
67 c13 -26 13 -31 -4 -31 -7 0 -16 11 -18 25 -6 30 7 33 22 6z m-40 -12 c0
-11 -4 -17 -10 -14 -5 3 -10 13 -10 21 0 8 5 14 10 14 6 0 10 -9 10 -21z
m-455 -104 c15 -11 37 -28 49 -39 21 -18 20 -18 -9 -1 -59 35 -115 106 -115
147 0 7 11 -9 24 -37 12 -27 35 -59 51 -70z m415 99 c0 -8 -5 -12 -10 -9 -6 4
-8 11 -5 16 9 14 15 11 15 -7z m-1 -102 c14 -10 27 -24 29 -31 2 -6 -8 0 -23
14 -51 46 -135 25 -151 -39 -7 -31 -24 -45 -24 -21 0 26 29 70 57 87 31 19 80
14 112 -10z m271 8 c0 -5 -5 -10 -11 -10 -5 0 -7 5 -4 10 3 6 8 10 11 10 2 0
4 -4 4 -10z m34 2 c3 -5 -1 -9 -9 -9 -8 0 -12 4 -9 9 3 4 7 8 9 8 2 0 6 -4 9
-8z m-147 -9 c-65 -3 -86 -7 -80 -16 4 -7 0 -7 -10 2 -9 7 -17 15 -17 17 0 2
44 3 98 2 l97 -2 -88 -3z m190 1 c-3 -3 -12 -4 -19 -1 -8 3 -5 6 6 6 11 1 17
-2 13 -5z m-380 -60 c2 -6 -8 -16 -22 -22 -36 -17 -45 -14 -15 4 23 14 23 14
3 9 -13 -4 -23 -2 -23 3 0 21 50 26 57 6z m162 -5 c32 4 25 -4 -11 -13 -22 -5
-30 -2 -39 16 -11 21 -11 22 6 8 10 -8 30 -13 44 -11z m685 -1 c15 -25 -5 -54
-35 -50 -38 4 -49 31 -23 57 20 19 43 16 58 -7z m-574 -2 c0 -2 -9 -6 -20 -9
-11 -3 -18 -1 -14 4 5 9 34 13 34 5z m44 -5 c-9 -9 -34 -9 -34 -1 0 5 9 8 20
7 10 -1 17 -3 14 -6z m56 5 c0 -2 -9 -6 -20 -9 -11 -3 -18 -1 -14 4 5 9 34 13
34 5z m-375 -46 c-3 -5 -12 -10 -18 -10 -7 0 -6 4 3 10 19 12 23 12 15 0z"/>
</g>
</svg>
